<?xml version="1.0" encoding="UTF-8" standalone="no"?><!DOCTYPE svg PUBLIC "-//W3C//DTD SVG 1.1//EN" "http://www.w3.org/Graphics/SVG/1.1/DTD/svg11.dtd"><svg width="100%" height="100%" viewBox="0 0 417 104" version="1.1" xmlns="http://www.w3.org/2000/svg" xmlns:xlink="http://www.w3.org/1999/xlink" xml:space="preserve" xmlns:serif="http://www.serif.com/" style="fill-rule:evenodd;clip-rule:evenodd;stroke-linejoin:round;stroke-miterlimit:2;"><path d="M45.083,48.405c2.187,2.631 5.005,3.946 8.456,3.946c1.879,-0 3.399,-0.41 4.561,-1.23c1.161,-0.82 1.742,-1.93 1.742,-3.331c0,-1.059 -0.546,-1.973 -1.64,-2.742c-1.093,-0.768 -2.417,-1.46 -3.971,-2.075c-1.555,-0.615 -3.118,-1.316 -4.689,-2.101c-1.572,-0.786 -2.904,-1.905 -3.998,-3.357c-1.093,-1.452 -1.639,-3.203 -1.639,-5.253c-0,-3.621 1.264,-6.482 3.792,-8.584c2.528,-2.101 5.842,-3.151 9.942,-3.151c2.391,-0 4.757,0.504 7.097,1.512c2.341,1.007 4.126,2.519 5.356,4.535l-6.099,4.253c-0.581,-1.025 -1.494,-1.836 -2.741,-2.434c-1.247,-0.598 -2.537,-0.914 -3.87,-0.948c-1.776,0 -3.194,0.342 -4.253,1.025c-1.059,0.683 -1.589,1.589 -1.589,2.716c0,0.683 0.291,1.307 0.872,1.871c0.58,0.563 1.34,1.05 2.28,1.46c0.94,0.41 1.982,0.837 3.126,1.281c1.145,0.444 2.289,0.965 3.434,1.563c1.144,0.598 2.186,1.281 3.126,2.05c0.939,0.769 1.699,1.76 2.28,2.972c0.581,1.213 0.871,2.588 0.871,4.126c0,3.997 -1.332,7.132 -3.997,9.404c-2.665,2.272 -6.115,3.408 -10.352,3.408l-0.205,-0c-2.699,-0 -5.261,-0.496 -7.687,-1.487c-2.425,-0.99 -4.373,-2.511 -5.842,-4.561l5.637,-4.868Z" style="fill:#fff;fill-rule:nonzero;"/><path d="M74.601,30.417l6.56,0l-0.205,3.946c2.084,-2.938 4.663,-4.407 7.738,-4.407c1.913,0 3.536,0.453 4.869,1.358c1.332,0.906 2.22,2.11 2.664,3.613c2.221,-3.314 4.954,-4.971 8.2,-4.971c3.348,0 5.68,0.94 6.995,2.819c1.315,1.879 1.973,4.099 1.973,6.662c0,1.332 -0.137,2.801 -0.41,4.407l-2.562,14.759l-7.226,0l2.562,-14.759c0.171,-0.922 0.257,-1.742 0.257,-2.46c-0,-1.127 -0.282,-2.135 -0.846,-3.023c-0.564,-0.889 -1.546,-1.333 -2.947,-1.333c-1.366,0 -2.605,0.547 -3.715,1.64c-1.11,1.093 -1.871,2.819 -2.281,5.176l-2.613,14.759l-7.175,0l2.563,-14.759c0.171,-0.888 0.256,-1.691 0.256,-2.409c-0,-1.161 -0.29,-2.186 -0.871,-3.074c-0.581,-0.889 -1.555,-1.333 -2.921,-1.333c-1.367,0 -2.622,0.607 -3.767,1.819c-1.144,1.213 -1.905,2.998 -2.28,5.356l-2.512,14.4l-7.225,0l4.919,-28.186Z" style="fill:#fff;fill-rule:nonzero;"/><path d="M121.543,34.876c3.075,-3.28 6.782,-4.92 11.121,-4.92c1.947,0 3.707,0.487 5.278,1.461c1.572,0.973 2.665,2.195 3.28,3.664l1.179,-4.664l6.559,0l-4.919,28.186l-6.56,0l0.41,-4.715c-1.161,1.504 -2.613,2.734 -4.356,3.69c-1.742,0.957 -3.57,1.435 -5.483,1.435c-3.212,0 -5.868,-1.204 -7.969,-3.613c-2.101,-2.408 -3.152,-5.372 -3.152,-8.891c0,-4.442 1.538,-8.319 4.612,-11.633Zm2.819,10.915c-0,1.743 0.581,3.195 1.742,4.356c1.162,1.162 2.648,1.743 4.459,1.743c2.323,-0 4.381,-0.88 6.175,-2.639c1.794,-1.76 2.691,-3.784 2.691,-6.073c-0,-1.777 -0.573,-3.246 -1.717,-4.407c-1.145,-1.162 -2.639,-1.743 -4.484,-1.743c-2.324,0 -4.382,0.888 -6.176,2.665c-1.793,1.777 -2.69,3.809 -2.69,6.098Z" style="fill:#fff;fill-rule:nonzero;"/><path d="M150.088,58.603l4.92,-28.186l6.559,0l-0.154,4.049c2.153,-2.836 5.159,-4.254 9.02,-4.254c0.991,0 1.845,0.069 2.562,0.205l-2.716,6.919c-0.171,-0.034 -0.461,-0.052 -0.871,-0.052c-2.392,0 -4.518,0.718 -6.38,2.153c-1.862,1.435 -3.084,3.877 -3.665,7.328l-2.049,11.838l-7.226,0Z" style="fill:#fff;fill-rule:nonzero;"/><path d="M174.891,30.417l3.946,0l2.665,-9.224l5.945,-0l-1.64,9.224l6.457,0l-1.128,6.406l-6.457,0l-1.742,9.942c-0.102,0.615 -0.154,1.179 -0.154,1.691c0,2.494 1.281,3.741 3.844,3.741c0.751,0 1.435,-0.119 2.05,-0.358l0.666,6.405c-1.401,0.581 -3.075,0.872 -5.022,0.872c-3.622,-0 -6.022,-0.931 -7.201,-2.793c-1.178,-1.862 -1.768,-3.887 -1.768,-6.073c0,-1.059 0.12,-2.204 0.359,-3.434l1.794,-9.993l-3.69,0l1.076,-6.406Z" style="fill:#fff;fill-rule:nonzero;"/><path d="M204.512,21.193l4.048,25.828l13.068,-25.828l8.405,-0l-19.73,37.41l-7.585,0l-6.611,-37.41l8.405,-0Z" style="fill:#fff;fill-rule:nonzero;"/><path d="M229.623,34.825c3.143,-3.212 7.038,-4.818 11.684,-4.818c3.826,0 6.91,1.162 9.25,3.485c2.34,2.323 3.511,5.159 3.511,8.507c-0,0.308 -0.018,0.632 -0.052,0.974c-0.034,0.82 -0.29,2.203 -0.768,4.151l-20.858,-0c0.068,1.64 0.718,2.929 1.948,3.869c1.229,0.939 2.664,1.409 4.304,1.409c2.973,0 5.432,-0.888 7.38,-2.665l5.022,3.844c-3.485,3.656 -7.721,5.483 -12.709,5.483c-3.895,0 -7.115,-1.213 -9.66,-3.638c-2.546,-2.426 -3.818,-5.432 -3.818,-9.02c-0,-4.475 1.589,-8.336 4.766,-11.581Zm3.587,6.969l13.58,0l0,-0.41c0,-1.366 -0.486,-2.519 -1.46,-3.459c-0.974,-0.939 -2.349,-1.409 -4.125,-1.409c-1.879,-0 -3.554,0.478 -5.023,1.435c-1.469,0.956 -2.459,2.237 -2.972,3.843Z" style="fill:#fff;fill-rule:nonzero;"/><path d="M260.935,30.417l6.559,0l-0.256,4.1c2.357,-3.041 5.227,-4.561 8.609,-4.561c3.28,0 5.612,0.999 6.996,2.998c1.383,1.999 2.075,4.313 2.075,6.944c0,1.298 -0.137,2.733 -0.41,4.305l-2.511,14.4l-7.175,0l2.512,-14.4c0.102,-0.718 0.153,-1.367 0.153,-1.948c0,-1.435 -0.376,-2.664 -1.127,-3.689c-0.752,-1.025 -1.948,-1.538 -3.587,-1.538c-1.64,0 -3.126,0.607 -4.459,1.819c-1.332,1.213 -2.186,2.998 -2.562,5.356l-2.511,14.4l-7.226,0l4.92,-28.186Z" style="fill:#fff;fill-rule:nonzero;"/><path d="M293.066,34.876c3.041,-3.28 6.765,-4.92 11.172,-4.92c1.879,0 3.596,0.461 5.15,1.384c1.555,0.922 2.623,2.084 3.203,3.485l2.87,-16.194l7.175,-0l-7.021,39.972l-6.56,0l0.41,-4.715c-1.161,1.538 -2.596,2.776 -4.304,3.716c-1.709,0.939 -3.554,1.409 -5.535,1.409c-3.212,0 -5.868,-1.204 -7.969,-3.613c-2.101,-2.408 -3.152,-5.372 -3.152,-8.891c0,-4.442 1.521,-8.319 4.561,-11.633Zm2.87,10.915c0,1.743 0.581,3.195 1.742,4.356c1.162,1.162 2.648,1.743 4.459,1.743c2.391,-0 4.467,-0.871 6.226,-2.614c1.76,-1.742 2.64,-3.775 2.64,-6.098c-0,-1.777 -0.573,-3.246 -1.717,-4.407c-1.145,-1.162 -2.639,-1.743 -4.484,-1.743c-2.392,0 -4.467,0.88 -6.227,2.639c-1.759,1.76 -2.639,3.801 -2.639,6.124Z" style="fill:#fff;fill-rule:nonzero;"/><path d="M328.734,21.193l7.687,-0l12.453,23.778l4.202,-23.778l7.687,-0l-6.559,37.41l-7.687,0l-12.505,-23.83l-4.151,23.83l-7.687,0l6.56,-37.41Z" style="fill:#fff;fill-rule:nonzero;"/><path d="M369.014,26.984c4.305,-4.305 9.6,-6.457 15.886,-6.457c3.178,-0 6.013,0.666 8.507,1.998c2.494,1.333 4.476,3.178 5.945,5.535l-7.021,4.561c-0.854,-1.298 -1.981,-2.332 -3.382,-3.1c-1.401,-0.769 -2.972,-1.153 -4.715,-1.153c-3.587,-0 -6.773,1.375 -9.557,4.125c-2.785,2.75 -4.177,5.885 -4.177,9.404c0,2.767 0.914,5.056 2.742,6.867c1.828,1.81 4.142,2.716 6.944,2.716c3.655,-0 6.867,-1.418 9.634,-4.254l6.662,4.459c-2.084,2.391 -4.586,4.27 -7.507,5.637c-2.921,1.367 -6.073,2.05 -9.455,2.05c-5.023,-0 -9.114,-1.589 -12.274,-4.766c-3.16,-3.177 -4.74,-7.158 -4.74,-11.941c-0,-6.115 2.169,-11.342 6.508,-15.681Z" style="fill:#fff;fill-rule:nonzero;"/><path d="M78.892,0c-74.505,2.025 -95.007,39.001 -32.483,65.921c-68.18,-22.068 -64.405,-65.921 32.483,-65.921Z" style="fill:#fff;"/><path d="M27.505,50.517c-13.112,-6.275 -15.385,-20.737 -11.429,-20.423c2.548,0 -4.035,7.142 11.429,20.423Z" style="fill:#fff;"/><path d="M304.637,94.671c43.657,12.286 80.653,5.621 109.204,-15.937c-8.822,5.143 -17.789,9.818 -27.024,13.618c2.079,-17.553 18.665,-13.308 30.073,-15.419c-2.386,16.166 -10.085,24.487 -27.994,17.738c-30.619,12.628 -58.268,10.02 -84.259,0Z" style="fill:#fff;"/><path d="M39.446,85.851l1.919,0l0,-5.813l6.745,-0l0,5.813l1.919,0l0,-13.601l-1.919,-0l0,5.869l-6.745,-0l0,-5.869l-1.919,-0l0,13.601Z" style="fill:#fff;fill-rule:nonzero;"/><path d="M57.575,85.982c1.733,-0 3.429,-0.82 4.398,-2.106l-1.472,-0.913c-0.653,0.801 -1.659,1.323 -2.926,1.323c-1.77,0 -3.204,-1.174 -3.484,-2.72l8.385,-0c0.018,-0.261 0.055,-0.615 0.055,-0.857c0,-2.888 -2.217,-5.236 -5.198,-5.236c-2.869,0 -5.198,2.348 -5.198,5.236c-0,2.906 2.329,5.273 5.44,5.273Zm-3.503,-5.907c0.112,-1.584 1.472,-2.906 3.28,-2.906c1.882,-0 3.204,1.322 3.298,2.906l-6.578,0Z" style="fill:#fff;fill-rule:nonzero;"/><path d="M68.96,85.982c1.677,-0 3.186,-0.988 3.819,-2.273l0.093,2.142l1.677,0l0,-10.248l-1.677,0l-0.093,2.162c-0.633,-1.304 -2.142,-2.311 -3.819,-2.311c-2.758,0 -4.994,2.367 -4.994,5.273c0,2.888 2.236,5.255 4.994,5.255Zm-3.149,-5.255c-0,-1.919 1.546,-3.484 3.447,-3.484c1.919,0 3.465,1.565 3.465,3.484c0,1.901 -1.546,3.447 -3.465,3.447c-1.901,0 -3.447,-1.546 -3.447,-3.447Z" style="fill:#fff;fill-rule:nonzero;"/><rect x="77.214" y="71.318" width="1.807" height="14.533" style="fill:#fff;fill-rule:nonzero;"/><path d="M85.598,86.019c0.541,-0 1.062,-0.093 1.491,-0.28l-0.466,-1.621c-0.242,0.094 -0.522,0.131 -0.782,0.131c-1.156,-0 -1.882,-0.764 -1.882,-2.236l-0,-4.77l2.459,0l0,-1.64l-2.459,0l-0,-3.353l-1.528,-0l-0.224,3.353l-1.434,0l-0,1.64l1.378,0l0,4.789c0,2.85 1.565,3.987 3.447,3.987Z" style="fill:#fff;fill-rule:nonzero;"/><path d="M89.027,85.851l1.807,0l-0,-5.217c-0,-2.347 1.286,-3.391 2.776,-3.391c1.509,0 2.776,1.062 2.776,3.391l0,5.217l1.826,0l0,-5.217c0,-3.54 -1.807,-5.18 -4.192,-5.18c-1.528,0 -2.627,0.858 -3.186,1.92l-0,-6.056l-1.807,0l-0,14.533Z" style="fill:#fff;fill-rule:nonzero;"/><path d="M100.914,90.062c1.956,0 3.13,-1.285 4.248,-4.211l3.913,-10.248l-1.938,0l-2.962,7.584l-2.981,-7.584l-1.957,0l4.099,10.043c-0.596,1.584 -1.341,2.683 -2.496,2.683c-0.429,0 -0.951,-0.13 -1.267,-0.279l-0.541,1.621c0.578,0.242 1.137,0.391 1.882,0.391Z" style="fill:#fff;fill-rule:nonzero;"/><path d="M120.143,86.056c2.739,0 4.695,-1.546 4.695,-4.006c-0,-4.919 -7.472,-3.503 -7.472,-6.484c0,-1.025 1.044,-1.788 2.665,-1.77c1.174,0.019 2.403,0.559 3.074,1.491l1.36,-1.062c-1.192,-1.603 -3.055,-2.199 -4.527,-2.199c-2.795,0 -4.435,1.547 -4.435,3.559c0,4.732 7.453,3.261 7.453,6.558c0,1.361 -1.155,2.143 -2.795,2.143c-1.528,-0.018 -2.739,-0.633 -3.708,-1.602l-1.211,1.229c1.435,1.547 3.149,2.125 4.901,2.143Z" style="fill:#fff;fill-rule:nonzero;"/><path d="M126.645,85.851l1.808,0l-0,-5.217c-0,-2.347 1.285,-3.391 2.776,-3.391c1.509,0 2.776,1.062 2.776,3.391l0,5.217l1.826,0l-0,-5.217c-0,-3.54 -1.807,-5.18 -4.192,-5.18c-1.565,0 -2.665,0.876 -3.224,1.957l-0.093,-1.808l-1.677,0l0,10.248Z" style="fill:#fff;fill-rule:nonzero;"/><path d="M142.65,85.982c1.677,-0 3.187,-0.988 3.82,-2.273l0.093,2.142l1.677,0l0,-10.248l-1.677,0l-0.093,2.162c-0.633,-1.304 -2.143,-2.311 -3.82,-2.311c-2.757,0 -4.993,2.367 -4.993,5.273c-0,2.888 2.236,5.255 4.993,5.255Zm-3.148,-5.255c-0,-1.919 1.546,-3.484 3.447,-3.484c1.919,0 3.465,1.565 3.465,3.484c0,1.901 -1.546,3.447 -3.465,3.447c-1.901,0 -3.447,-1.546 -3.447,-3.447Z" style="fill:#fff;fill-rule:nonzero;"/><path d="M155.544,85.982c1.807,-0 3.41,-0.913 4.341,-2.311l-1.509,-1.006c-0.615,0.894 -1.658,1.472 -2.832,1.472c-1.901,0 -3.41,-1.528 -3.41,-3.428c0,-1.863 1.509,-3.391 3.41,-3.391c1.137,-0 2.161,0.54 2.795,1.378l1.509,-1.006c-0.969,-1.341 -2.534,-2.217 -4.304,-2.217c-2.907,0 -5.254,2.348 -5.254,5.236c-0,2.906 2.347,5.273 5.254,5.273Z" style="fill:#fff;fill-rule:nonzero;"/><path d="M161.842,85.851l1.732,0l0,-3.204l1.659,-1.603l3.465,4.807l2.143,0l-4.434,-6.167l3.912,-4.081l-2.161,0l-4.584,4.584l0,-8.869l-1.732,0l-0,14.533Z" style="fill:#fff;fill-rule:nonzero;"/><path d="M175.984,86.038c2.142,-0 4.099,-0.988 4.099,-3.185c-0,-3.838 -6.484,-2.682 -6.484,-4.547c-0,-0.783 0.875,-1.231 2.105,-1.231c0.95,0 2.236,0.317 2.944,1.175l1.118,-1.118c-1.118,-1.342 -2.795,-1.696 -4.118,-1.696c-2.347,-0 -3.875,1.174 -3.875,2.852c-0,3.801 6.484,2.516 6.484,4.621c-0,0.893 -0.932,1.414 -2.273,1.414c-1.286,0 -2.628,-0.502 -3.317,-1.265l-1.248,1.191c1.192,1.304 3.093,1.789 4.565,1.789Z" style="fill:#fff;fill-rule:nonzero;"/><path d="M191.709,85.982c1.677,-0 3.186,-0.988 3.82,-2.273l0.093,2.142l1.677,0l-0,-10.248l-1.677,0l-0.093,2.162c-0.634,-1.304 -2.143,-2.311 -3.82,-2.311c-2.757,0 -4.993,2.367 -4.993,5.273c-0,2.888 2.236,5.255 4.993,5.255Zm-3.149,-5.255c0,-1.919 1.547,-3.484 3.447,-3.484c1.919,0 3.466,1.565 3.466,3.484c-0,1.901 -1.547,3.447 -3.466,3.447c-1.9,0 -3.447,-1.546 -3.447,-3.447Z" style="fill:#fff;fill-rule:nonzero;"/><path d="M203.876,86.019c0.54,-0 1.062,-0.093 1.491,-0.28l-0.466,-1.621c-0.242,0.094 -0.522,0.131 -0.783,0.131c-1.155,-0 -1.882,-0.764 -1.882,-2.236l0,-4.77l2.46,0l-0,-1.64l-2.46,0l0,-3.353l-1.527,-0l-0.224,3.353l-1.435,0l0,1.64l1.379,0l0,4.789c0,2.85 1.565,3.987 3.447,3.987Z" style="fill:#fff;fill-rule:nonzero;"/><path d="M213.174,90.062c1.956,0 3.13,-1.285 4.248,-4.211l3.913,-10.248l-1.938,0l-2.963,7.584l-2.981,-7.584l-1.956,0l4.099,10.043c-0.596,1.584 -1.342,2.683 -2.497,2.683c-0.428,0 -0.95,-0.13 -1.267,-0.279l-0.54,1.621c0.577,0.242 1.136,0.391 1.882,0.391Z" style="fill:#fff;fill-rule:nonzero;"/><path d="M227.017,85.982c2.888,-0 5.255,-2.367 5.255,-5.273c-0,-2.888 -2.367,-5.236 -5.255,-5.236c-2.906,0 -5.254,2.348 -5.254,5.236c0,2.906 2.348,5.273 5.254,5.273Zm-3.409,-5.273c-0,-1.863 1.509,-3.391 3.409,-3.391c1.882,-0 3.41,1.528 3.41,3.391c0,1.9 -1.528,3.428 -3.41,3.428c-1.9,0 -3.409,-1.528 -3.409,-3.428Z" style="fill:#fff;fill-rule:nonzero;"/><path d="M238.309,85.982c1.546,-0 2.664,-0.876 3.223,-1.957l0.093,1.826l1.677,0l0,-10.248l-1.807,0l-0,5.199c-0,2.348 -1.286,3.391 -2.776,3.391c-1.51,-0 -2.777,-1.043 -2.777,-3.391l0,-5.199l-1.826,0l0,5.199c0,3.54 1.808,5.18 4.193,5.18Z" style="fill:#fff;fill-rule:nonzero;"/><path d="M245.967,85.851l1.807,0l-0,-4.732c-0,-2.832 1.546,-3.801 3.279,-3.801c0.112,-0 0.242,0.018 0.354,0.037l0.373,-1.752c-0.242,-0.037 -0.503,-0.055 -0.764,-0.055c-1.509,-0.019 -2.665,0.633 -3.261,1.732l-0.112,-1.677l-1.676,0l-0,10.248Z" style="fill:#fff;fill-rule:nonzero;"/><path d="M263.295,85.982c1.807,-0 3.409,-0.913 4.341,-2.311l-1.509,-1.006c-0.615,0.894 -1.659,1.472 -2.832,1.472c-1.901,0 -3.41,-1.528 -3.41,-3.428c-0,-1.863 1.509,-3.391 3.41,-3.391c1.136,-0 2.161,0.54 2.794,1.378l1.51,-1.006c-0.969,-1.341 -2.534,-2.217 -4.304,-2.217c-2.907,0 -5.255,2.348 -5.255,5.236c0,2.906 2.348,5.273 5.255,5.273Z" style="fill:#fff;fill-rule:nonzero;"/><path d="M274.157,85.982c2.888,-0 5.254,-2.367 5.254,-5.273c0,-2.888 -2.366,-5.236 -5.254,-5.236c-2.906,0 -5.254,2.348 -5.254,5.236c-0,2.906 2.348,5.273 5.254,5.273Zm-3.41,-5.273c0,-1.863 1.51,-3.391 3.41,-3.391c1.882,-0 3.41,1.528 3.41,3.391c-0,1.9 -1.528,3.428 -3.41,3.428c-1.9,0 -3.41,-1.528 -3.41,-3.428Z" style="fill:#fff;fill-rule:nonzero;"/><path d="M281.48,85.851l1.807,0l0,-5.217c0,-2.347 1.286,-3.391 2.776,-3.391c1.509,0 2.776,1.062 2.776,3.391l0,5.217l1.826,0l0,-5.217c0,-3.54 -1.807,-5.18 -4.192,-5.18c-1.565,0 -2.664,0.876 -3.223,1.957l-0.093,-1.808l-1.677,0l-0,10.248Z" style="fill:#fff;fill-rule:nonzero;"/><path d="M295.51,85.851l1.807,0l4.025,-10.248l-1.957,0l-2.962,7.528l-2.981,-7.528l-1.957,0l4.025,10.248Z" style="fill:#fff;fill-rule:nonzero;"/><path d="M307.211,85.982c1.733,-0 3.428,-0.82 4.397,-2.106l-1.472,-0.913c-0.652,0.801 -1.658,1.323 -2.925,1.323c-1.77,0 -3.205,-1.174 -3.484,-2.72l8.384,-0c0.019,-0.261 0.056,-0.615 0.056,-0.857c0,-2.888 -2.217,-5.236 -5.198,-5.236c-2.87,0 -5.199,2.348 -5.199,5.236c0,2.906 2.329,5.273 5.441,5.273Zm-3.503,-5.907c0.112,-1.584 1.472,-2.906 3.279,-2.906c1.882,-0 3.205,1.322 3.298,2.906l-6.577,0Z" style="fill:#fff;fill-rule:nonzero;"/><path d="M314.217,85.851l1.807,0l-0,-5.217c-0,-2.347 1.286,-3.391 2.776,-3.391c1.509,0 2.776,1.062 2.776,3.391l0,5.217l1.826,0l0,-5.217c0,-3.54 -1.807,-5.18 -4.192,-5.18c-1.565,0 -2.664,0.876 -3.223,1.957l-0.093,-1.808l-1.677,0l-0,10.248Z" style="fill:#fff;fill-rule:nonzero;"/><path d="M325.843,85.851l1.808,0l-0,-10.248l-1.808,0l0,10.248Zm-0.242,-12.446c-0,0.633 0.522,1.155 1.155,1.155c0.615,0 1.137,-0.522 1.137,-1.155c-0,-0.634 -0.522,-1.155 -1.137,-1.155c-0.633,-0 -1.155,0.521 -1.155,1.155Z" style="fill:#fff;fill-rule:nonzero;"/><path d="M335.141,85.982c1.733,-0 3.428,-0.82 4.397,-2.106l-1.472,-0.913c-0.652,0.801 -1.658,1.323 -2.925,1.323c-1.77,0 -3.205,-1.174 -3.485,-2.72l8.385,-0c0.019,-0.261 0.056,-0.615 0.056,-0.857c-0,-2.888 -2.217,-5.236 -5.199,-5.236c-2.869,0 -5.198,2.348 -5.198,5.236c0,2.906 2.329,5.273 5.441,5.273Zm-3.503,-5.907c0.112,-1.584 1.472,-2.906 3.279,-2.906c1.882,-0 3.205,1.322 3.298,2.906l-6.577,0Z" style="fill:#fff;fill-rule:nonzero;"/><path d="M342.146,85.851l1.808,0l-0,-5.217c-0,-2.347 1.285,-3.391 2.776,-3.391c1.509,0 2.776,1.062 2.776,3.391l0,5.217l1.826,0l0,-5.217c0,-3.54 -1.807,-5.18 -4.192,-5.18c-1.565,0 -2.665,0.876 -3.223,1.957l-0.094,-1.808l-1.677,0l0,10.248Z" style="fill:#fff;fill-rule:nonzero;"/><path d="M358.412,85.982c1.808,-0 3.41,-0.913 4.342,-2.311l-1.509,-1.006c-0.615,0.894 -1.659,1.472 -2.833,1.472c-1.9,0 -3.409,-1.528 -3.409,-3.428c-0,-1.863 1.509,-3.391 3.409,-3.391c1.137,-0 2.162,0.54 2.795,1.378l1.51,-1.006c-0.969,-1.341 -2.534,-2.217 -4.305,-2.217c-2.906,0 -5.254,2.348 -5.254,5.236c0,2.906 2.348,5.273 5.254,5.273Z" style="fill:#fff;fill-rule:nonzero;"/><path d="M369.461,85.982c1.733,-0 3.429,-0.82 4.398,-2.106l-1.472,-0.913c-0.652,0.801 -1.659,1.323 -2.926,1.323c-1.77,0 -3.204,-1.174 -3.484,-2.72l8.385,-0c0.018,-0.261 0.056,-0.615 0.056,-0.857c-0,-2.888 -2.218,-5.236 -5.199,-5.236c-2.869,0 -5.198,2.348 -5.198,5.236c-0,2.906 2.329,5.273 5.44,5.273Zm-3.502,-5.907c0.111,-1.584 1.471,-2.906 3.279,-2.906c1.882,-0 3.205,1.322 3.298,2.906l-6.577,0Z" style="fill:#fff;fill-rule:nonzero;"/></svg>